<mxfile host="app.diagrams.net" modified="2023-07-25T20:25:06.867Z" agent="Mozilla/5.0 (Macintosh; Intel Mac OS X 10_15_7) AppleWebKit/605.1.15 (KHTML, like Gecko) Version/15.5 Safari/605.1.15" version="21.6.5" etag="M5TVbsnQwIQJbMsugSyo" type="github">
  <diagram name="PÃ¡gina-1" id="GGM5bEnOu2B1bkJGx8Cr">
    <mxGraphModel>
      <root>
        <mxCell id="0" />
        <mxCell id="1" parent="0" />
      </root>
    </mxGraphModel>
  </diagram>
</mxfile>
